<svg width="2000" height="2000" viewBox="0 0 2000 2000" fill="none" xmlns="http://www.w3.org/2000/svg">
<g clip-path="url(#clip0_14_79)">
<rect width="2000" height="2000" fill="black"/>
<path d="M0 0H2000V2000H0V0Z" fill="white"/>
<g clip-path="url(#clip1_14_79)">
<path d="M777.54 1049.39C779.714 1041.67 863.882 919.071 863.216 910.544C859.194 859.098 836.11 811.527 794.581 780.24C791.604 777.997 785.771 774.236 783.639 771.501C784.277 770.324 785.092 769.426 786.287 768.813C797.881 762.874 809.346 755.986 820.621 749.467C849.664 732.771 878.505 715.726 907.138 698.336C966.414 661.692 1024.4 623.003 1081 582.341C1244.9 465.564 1403.84 329.845 1518.38 162.643C1525.5 152.25 1558.33 100.16 1560.2 89.9081L1560.76 89.869C1562 92.8405 1558.75 102.89 1557.9 106.337C1541.23 173.615 1508.6 237.906 1472.04 296.386C1454.1 325.241 1434.72 353.184 1414 380.113C1399.98 398.162 1384.44 415.766 1369.81 433.377C1360.36 444.751 1349.23 455.249 1339 465.948C1250.56 557.419 1151.6 638.111 1044.21 706.344C1014.54 725.385 984.426 743.721 953.89 761.335C947.733 764.908 912.119 784.194 909.146 787.813C933.437 815.06 942.186 858.469 927.826 892.156C925.106 898.54 921.805 904.623 918.595 910.77C932.237 924.473 946.694 937.215 960.685 950.468L1057.1 1041.59C1071.09 1054.83 1087.77 1069.41 1100.84 1083.04C1098.15 1083.79 1096.73 1083.26 1095.49 1085.79C1084.8 1079.88 1073.93 1072.68 1063.25 1066.56L875.786 1014.89L938.087 1198.09L842.191 1022.72L853.85 1193.59C846.474 1189.2 784.131 1054.36 777.54 1049.39Z" fill="black"/>
<path d="M1545.44 238.907L1546.05 239.398C1541.74 259.556 1536.13 279.41 1529.24 298.836C1523.91 313.89 1516.97 330.514 1510.34 345.075C1442.92 493.067 1324.8 624.042 1199.97 725.79C1160.39 757.558 1119.52 787.68 1077.47 816.094C1046.69 836.935 1016.14 857.655 983.994 876.387C978.678 879.48 973.831 882.708 968.229 885.386L968.808 879.319C972.254 852.73 962.448 827.919 949.248 805.595C971.884 791.887 994.18 777.622 1016.11 762.813C1025.1 756.67 1033.84 750.124 1042.79 744C1070.7 724.899 1099.73 707.516 1127.52 688.146C1222.61 623.008 1309.89 547.145 1387.63 462.055C1442.77 400.75 1490.75 333.399 1532.77 262.414C1535.58 257.665 1542.57 241.922 1545.44 238.907Z" fill="black"/>
<path d="M1523.04 392.976C1523.77 395.197 1519.43 408.998 1518.54 412.263C1508.66 447.749 1495.52 482.243 1479.27 515.299C1414.18 650.4 1293.7 781.943 1176 874.673C1147.1 897.31 1117.71 919.319 1087.86 940.681C1071.92 951.871 1052.89 963.514 1037.82 974.688C1030.9 969.387 1021.2 960.006 1014.65 953.815C1013.52 952.438 1011.45 950.788 1010.1 949.515C1000.12 940.114 989.967 930.957 980.53 920.986C984.474 917.181 992.255 912.203 997.063 908.927L1021.45 892.121C1050.95 871.743 1078.23 853 1106.93 831.282C1156.88 794.138 1205.54 755.314 1252.85 714.866C1264.09 705.107 1274.13 695.082 1285.46 684.724C1376 601.925 1459.53 508.557 1518.75 400.481C1520.18 397.873 1522.16 395.514 1523.04 392.976Z" fill="black"/>
<path d="M1100.83 1083.04C1105.87 1087.5 1112.99 1094.1 1117.53 1098.98C1110.13 1094.67 1102.78 1090.27 1095.49 1085.79C1096.73 1083.26 1098.15 1083.79 1100.83 1083.04Z" fill="black"/>
</g>
<path d="M1181.74 1016.6V1671.09H1018.36V1051.79L760.057 802.827V1671.09H624.683V1051.79L366.383 802.827V1671.09H203V692.348H420.229L616.5 913.335L649.075 884.404L478.5 692.348H854.139L1181.74 1016.6Z" fill="black"/>
<path d="M366.383 1051.79V802.826L624.683 1051.79V1767.56H366.383V1051.79Z" fill="white"/>
<path d="M760.057 1051.79V802.826L1018.36 1051.79V1767.56H760.057V1051.79Z" fill="white"/>
<path d="M1941.5 692.418C1710.89 692.418 1489.73 743.991 1326.67 835.79C1163.61 927.589 1072 1052.09 1072 1181.92C1072 1311.74 1163.61 1436.25 1326.67 1528.05C1489.73 1619.85 1710.89 1671.42 1941.5 1671.42L1941.5 1181.92L1941.5 692.418Z" fill="black"/>
<path d="M1762.5 1083C1634.53 1083 1691.81 651.991 1601.32 743.79C1510.83 835.589 1460 960.095 1460 1089.92C1460 1219.74 1510.83 1344.25 1601.32 1436.05C1691.81 1527.85 1814.53 1579.42 1942.5 1579.42L1942.5 1089.92L1762.5 1083Z" fill="white"/>
</g>
<defs>
<clipPath id="clip0_14_79">
<rect width="2000" height="2000" fill="white"/>
</clipPath>
<clipPath id="clip1_14_79">
<rect width="1130.96" height="961.003" fill="white" transform="translate(474 290.718) rotate(-13.12)"/>
</clipPath>
</defs>
</svg>
