<svg width="512" height="512" viewBox="0 0 512 512" fill="none" xmlns="http://www.w3.org/2000/svg">
<g clip-path="url(#clip0_15_227)">
<rect width="512" height="512" fill="black"/>
<g clip-path="url(#clip1_15_227)">
<rect width="512" height="512" fill="black"/>
<path d="M0 0H512V512H0V0Z" fill="white"/>
<g clip-path="url(#clip2_15_227)">
<path d="M199.05 268.644C199.607 266.669 221.154 235.282 220.983 233.099C219.954 219.929 214.044 207.751 203.413 199.741C202.651 199.167 201.158 198.204 200.612 197.504C200.775 197.203 200.984 196.973 201.29 196.816C204.258 195.296 207.193 193.532 210.079 191.864C217.514 187.59 224.898 183.226 232.228 178.774C247.402 169.393 262.247 159.489 276.735 149.079C318.695 119.184 359.382 84.4403 388.705 41.6368C390.528 38.976 398.932 25.6409 399.411 23.0165L399.555 23.0066C399.872 23.7672 399.04 26.3398 398.822 27.2224C394.555 44.4456 386.202 60.9041 376.843 75.875C372.249 83.2618 367.29 90.4153 361.984 97.3091C358.394 101.93 354.417 106.436 350.672 110.945C348.253 113.856 345.403 116.544 342.785 119.283C320.143 142.699 294.811 163.357 267.317 180.824C259.722 185.699 252.013 190.393 244.196 194.902C242.62 195.817 233.503 200.754 232.742 201.68C238.96 208.656 241.2 219.768 237.524 228.392C236.827 230.026 235.982 231.584 235.16 233.157C238.653 236.665 242.354 239.927 245.936 243.32L270.617 266.648C274.198 270.037 278.469 273.768 281.814 277.258C281.127 277.45 280.763 277.315 280.445 277.964C277.71 276.448 274.927 274.607 272.192 273.039L224.201 259.811L240.15 306.712L215.601 261.815L218.586 305.558C216.697 304.435 200.738 269.917 199.05 268.644Z" fill="black"/>
<path d="M395.632 61.1604L395.787 61.286C394.686 66.4463 393.249 71.5292 391.485 76.5021C390.12 80.3559 388.344 84.6116 386.646 88.3392C369.388 126.225 339.148 159.755 307.192 185.802C297.059 193.935 286.597 201.646 275.832 208.92C267.952 214.255 260.131 219.56 251.902 224.355C250.541 225.147 249.301 225.973 247.866 226.659L248.015 225.106C248.897 218.299 246.386 211.947 243.007 206.233C248.802 202.723 254.51 199.071 260.125 195.28C262.424 193.708 264.662 192.032 266.953 190.464C274.099 185.574 281.53 181.124 288.645 176.165C312.987 159.49 335.331 140.069 355.234 118.286C369.348 102.592 381.631 85.3502 392.389 67.178C393.109 65.9624 394.899 61.9322 395.632 61.1604Z" fill="black"/>
<path d="M389.896 100.602C390.084 101.17 388.972 104.704 388.745 105.54C386.217 114.624 382.852 123.454 378.693 131.917C362.03 166.502 331.187 200.178 301.056 223.916C293.657 229.712 286.134 235.346 278.491 240.815C274.41 243.679 269.539 246.66 265.681 249.52C263.91 248.163 261.426 245.762 259.749 244.177C259.461 243.824 258.931 243.402 258.586 243.076C256.03 240.669 253.431 238.325 251.015 235.773C252.024 234.798 254.016 233.524 255.247 232.685L261.491 228.383C269.043 223.166 276.026 218.368 283.374 212.808C296.159 203.3 308.618 193.361 320.729 183.006C323.606 180.507 326.177 177.941 329.076 175.29C352.256 154.093 373.64 130.191 388.799 102.523C389.165 101.856 389.672 101.252 389.896 100.602Z" fill="black"/>
<path d="M281.813 277.258C283.102 278.401 284.925 280.09 286.087 281.339C284.193 280.236 282.312 279.109 280.444 277.964C280.762 277.315 281.126 277.45 281.813 277.258Z" fill="black"/>
</g>
<path d="M302.526 260.248V427.799H260.7V269.259L194.575 205.523V427.799H159.92V269.259L93.7949 205.523V427.799H51.9688V177.241H107.579L157.825 233.814L166.164 226.407L122.497 177.241H218.66L302.526 260.248Z" fill="black"/>
<path d="M93.793 269.258V205.524L159.918 269.258V452.496H93.793V269.258Z" fill="white"/>
<path d="M194.574 269.258V205.524L260.698 269.258V452.496H194.574V269.258Z" fill="white"/>
<path d="M497.026 177.259C437.991 177.259 381.373 190.462 339.629 213.962C297.885 237.463 274.434 269.336 274.434 302.571C274.434 335.806 297.885 367.68 339.629 391.18C381.373 414.681 437.991 427.883 497.026 427.883L497.026 302.571L497.026 177.259Z" fill="black"/>
<path d="M451.202 277.248C418.442 277.248 433.104 166.91 409.94 190.41C386.775 213.911 373.762 245.784 373.762 279.019C373.762 312.254 386.775 344.128 409.94 367.628C433.104 391.129 464.522 404.331 497.282 404.331L497.282 279.019L451.202 277.248Z" fill="white"/>
</g>
</g>
<defs>
<clipPath id="clip0_15_227">
<rect width="512" height="512" fill="white"/>
</clipPath>
<clipPath id="clip1_15_227">
<rect width="512" height="512" fill="white"/>
</clipPath>
<clipPath id="clip2_15_227">
<rect width="289.527" height="246.017" fill="white" transform="translate(121.344 74.424) rotate(-13.12)"/>
</clipPath>
</defs>
</svg>
